<svg width="49" height="39" viewBox="0 0 49 39" fill="none" xmlns="http://www.w3.org/2000/svg">
<path d="M17.0614 26.3008C15.0376 26.3008 14.5129 26.9696 12.1143 26.9696C9.71573 26.9696 9.19104 26.3008 7.09226 26.3008C1.69542 26.3008 0.121338 30.7594 0.121338 33.1374V35.8868C0.121338 37.596 1.39559 38.8592 3.11959 38.8592H21.1091C22.7581 38.8592 24.1073 37.596 24.1073 35.8868V33.1374C24.1073 29.942 21.7837 26.3008 17.0614 26.3008ZM20.5094 35.2924H3.71924V33.1374C3.71924 32.097 4.31888 29.8677 7.09226 29.8677C8.36652 29.8677 9.26599 30.5365 12.1143 30.5365C14.8877 30.5365 15.7872 29.8677 17.0614 29.8677C19.8348 29.8677 20.5094 32.097 20.5094 33.1374V35.2924ZM12.1143 24.5917C16.087 24.5917 19.3101 21.4707 19.3101 17.4579C19.3101 13.5195 16.087 10.3242 12.1143 10.3242C8.06669 10.3242 4.91853 13.5195 4.91853 17.4579C4.91853 21.4707 8.06669 24.5917 12.1143 24.5917ZM12.1143 13.8911C14.0632 13.8911 15.7122 15.5259 15.7122 17.4579C15.7122 19.4643 14.0632 21.0248 12.1143 21.0248C10.0905 21.0248 8.51643 19.4643 8.51643 17.4579C8.51643 15.5259 10.0905 13.8911 12.1143 13.8911ZM44.4954 0.8125H15.7122C13.6884 0.8125 12.1143 2.52163 12.1143 4.528V7.94626C12.7889 7.94626 14.5129 8.2435 15.7122 8.68936V4.37938H44.4954V28.1586H40.8975V24.5917C40.8975 23.3284 39.7732 22.2138 38.4989 22.2138H28.9045C27.5553 22.2138 26.5059 23.3284 26.5059 24.5917V31.7255H44.4954C46.4443 31.7255 48.0933 30.0906 48.0933 28.0843V4.528C48.0933 2.52163 46.4443 0.8125 44.4954 0.8125ZM37.2996 28.1586H30.1038V25.7807H37.2996V28.1586Z" fill="url(#paint0_linear_376_11685)"/>
<defs>
<linearGradient id="paint0_linear_376_11685" x1="24.1073" y1="0.8125" x2="24.1073" y2="38.8592" gradientUnits="userSpaceOnUse">
<stop stop-color="#FED47B"/>
<stop offset="1" stop-color="#F58B41"/>
</linearGradient>
</defs>
</svg>
